STARTFONT 2.3
FONT -FontForge-Fontdiner Swanky-Book-R-Normal--18-180-72-72-P-114-ISO10646-1
SIZE 18 72 72  2
FONTBOUNDINGBOX 25 28 -4 -9
COMMENT "Generated by fontforge, http://fontforge.sourceforge.net"
COMMENT "Copyright (c) 2010 by Font Diner, Inc. All rights reserved."
STARTPROPERTIES 40
FOUNDRY "FontForge"
FAMILY_NAME "Fontdiner Swanky"
WEIGHT_NAME "Book"
SLANT "R"
SETWIDTH_NAME "Normal"
ADD_STYLE_NAME ""
PIXEL_SIZE 18
POINT_SIZE 180
RESOLUTION_X 72
RESOLUTION_Y 72
SPACING "P"
AVERAGE_WIDTH 114
CHARSET_REGISTRY "ISO10646"
CHARSET_ENCODING "1"
FONTNAME_REGISTRY ""
CHARSET_COLLECTIONS "ISO10646-1"
BITS_PER_PIXEL 2
FONT_NAME "FontdinerSwanky-Regular"
FACE_NAME "Fontdiner Swanky Regular"
COPYRIGHT "Copyright (c) 2010 by Font Diner, Inc. All rights reserved."
FONT_VERSION "1.001"
FONT_ASCENT 14
FONT_DESCENT 4
UNDERLINE_POSITION -2
UNDERLINE_THICKNESS 1
X_HEIGHT 9
CAP_HEIGHT 10
RAW_ASCENT 799
RAW_DESCENT 200
NORM_SPACE 6
RELATIVE_WEIGHT 40
RELATIVE_SETWIDTH 50
SUPERSCRIPT_X 0
SUPERSCRIPT_Y 8
SUPERSCRIPT_SIZE 11
SUBSCRIPT_X 0
SUBSCRIPT_Y 2
SUBSCRIPT_SIZE 11
AVG_LOWERCASE_WIDTH 114
AVG_UPPERCASE_WIDTH 139
ENDPROPERTIES
CHARS 231
STARTCHAR space
ENCODING 32
SWIDTH 320 0
DWIDTH 6 0
BBX 1 1 0 0
BITMAP
00
ENDCHAR
STARTCHAR exclam
ENCODING 33
SWIDTH 305 0
DWIDTH 6 0
BBX 6 15 0 0
BITMAP
1FD0
1FD0
1FC0
1FC0
1F80
1F80
2F40
2F00
2F00
2E00
2E00
1900
1400
BE00
7D00
ENDCHAR
STARTCHAR quotedbl
ENCODING 34
SWIDTH 369 0
DWIDTH 7 0
BBX 7 5 0 7
BITMAP
BDF4
BDF4
B9F4
B8F0
68B0
ENDCHAR
STARTCHAR numbersign
ENCODING 35
SWIDTH 702 0
DWIDTH 13 0
BBX 13 13 0 0
BITMAP
00405000
03D0F000
03D0F000
7FFAFA40
7FFFFF40
57D6E500
07C1E000
0782E000
BFFFFF00
FFFFFE00
0743E400
0B43D000
05014000
ENDCHAR
STARTCHAR dollar
ENCODING 36
SWIDTH 545 0
DWIDTH 10 0
BBX 10 16 0 -3
BITMAP
02E000
02E000
0BE440
3FBEC0
B80BC0
BD01C0
7FE440
2FFE00
46FFC0
601FE0
B807E0
BFAFC0
96FA00
01F000
01F000
005000
ENDCHAR
STARTCHAR percent
ENCODING 37
SWIDTH 657 0
DWIDTH 12 0
BBX 12 15 0 -1
BITMAP
0001E0
3F82F0
B6D3E0
B1E7C0
7FDB80
1A5F40
002E00
003D00
007C00
00F8A8
01F2EE
02E38B
03D3DF
0781FD
064000
ENDCHAR
STARTCHAR ampersand
ENCODING 38
SWIDTH 668 0
DWIDTH 12 0
BBX 14 16 0 -2
BITMAP
00540000
0BFE0000
1F0B4000
2E0B8000
1F4B4000
0BEE0000
03F80000
07F82000
1FBE2800
3D2F6D00
7D0FF500
7F47F6A0
3FFFFF40
0BF4F800
0001D000
00020000
ENDCHAR
STARTCHAR quotesingle
ENCODING 39
SWIDTH 177 0
DWIDTH 3 0
BBX 3 5 0 7
BITMAP
BC
BC
B8
B8
64
ENDCHAR
STARTCHAR parenleft
ENCODING 40
SWIDTH 384 0
DWIDTH 7 0
BBX 6 18 1 -3
BITMAP
0090
0780
1F00
3D00
BC00
B800
F800
F800
F800
F800
F800
BC00
BD00
3E00
2F00
0B80
01D0
0010
ENDCHAR
STARTCHAR parenright
ENCODING 41
SWIDTH 375 0
DWIDTH 7 0
BBX 6 18 0 -3
BITMAP
6000
2D00
0F40
0BC0
07D0
03E0
02F0
02F0
02F0
02F0
02F0
03E0
07D0
0BC0
1F40
2E00
7400
4000
ENDCHAR
STARTCHAR asterisk
ENCODING 42
SWIDTH 640 0
DWIDTH 12 0
BBX 12 12 0 0
BITMAP
010000
1F4740
0BCBE0
03DF80
55FF00
BFFFFD
BFFFFD
A5FE54
03EF80
0BCFD0
0B4B80
020000
ENDCHAR
STARTCHAR plus
ENCODING 43
SWIDTH 607 0
DWIDTH 11 0
BBX 11 12 0 0
BITMAP
005000
00FC00
00FC00
00F800
6AFD50
BFFFF8
BFFFF8
55F800
00B800
00B800
00B800
005000
ENDCHAR
STARTCHAR comma
ENCODING 44
SWIDTH 226 0
DWIDTH 4 0
BBX 4 6 0 -4
BITMAP
14
BE
BF
6E
2C
10
ENDCHAR
STARTCHAR hyphen
ENCODING 45
SWIDTH 549 0
DWIDTH 10 0
BBX 8 4 1 4
BITMAP
AAA5
FFFE
FFFE
5540
ENDCHAR
STARTCHAR period
ENCODING 46
SWIDTH 226 0
DWIDTH 4 0
BBX 4 4 0 -2
BITMAP
14
BE
BE
14
ENDCHAR
STARTCHAR slash
ENCODING 47
SWIDTH 600 0
DWIDTH 11 0
BBX 12 18 -1 -2
BITMAP
000014
00003E
0000BF
0001FD
0003F8
0007F0
000FD0
002F80
007F40
00BE00
01FC00
03F400
0BE000
0FC000
2F8000
7F0000
2D0000
040000
ENDCHAR
STARTCHAR zero
ENCODING 48
SWIDTH 740 0
DWIDTH 13 0
BBX 13 12 0 0
BITMAP
00150000
06FFF400
1FE5FD00
3F403F40
7E001F80
BD001FC0
BD000FC0
7E001F80
7F002F40
2F807E00
0BFBF800
01BF9000
ENDCHAR
STARTCHAR one
ENCODING 49
SWIDTH 503 0
DWIDTH 9 0
BBX 11 14 -1 -1
BITMAP
016E00
6FFE00
05FE00
00BE00
00BE00
00BD00
007D00
007D00
007D00
007D00
007D00
007D00
06FF90
1AAAA4
ENDCHAR
STARTCHAR two
ENCODING 50
SWIDTH 638 0
DWIDTH 12 0
BBX 11 15 0 -1
BITMAP
400000
61BE40
3BFFE0
3F42F8
3D00FC
2800FC
2401F8
1007F0
007F84
02F808
1FD028
3F0038
BFAFF8
FFFFF4
5555A4
ENDCHAR
STARTCHAR three
ENCODING 51
SWIDTH 620 0
DWIDTH 11 0
BBX 11 15 0 -1
BITMAP
400000
81A900
6BFF80
7E5BF0
3802F4
2001F4
1002F4
01AFE0
01FFF0
1007F8
3002F8
7802F8
BE4BF4
ABFFD0
81A900
ENDCHAR
STARTCHAR four
ENCODING 52
SWIDTH 606 0
DWIDTH 11 0
BBX 12 16 -1 -2
BITMAP
000010
000090
0002D0
000BD0
001FD0
007FD0
00FFD0
03EBD1
0B8BC9
2F5BED
7FFFFD
0007C9
0007C5
000BC0
00BFF8
015554
ENDCHAR
STARTCHAR five
ENCODING 53
SWIDTH 610 0
DWIDTH 11 0
BBX 11 15 0 -1
BITMAP
000010
056BF0
BFFFF0
BE95B0
BC0020
7D5410
7FFF80
3E6FE0
2007F4
0002F4
2003F4
7807F0
7FAFE0
ABFF80
406500
ENDCHAR
STARTCHAR six
ENCODING 54
SWIDTH 619 0
DWIDTH 11 0
BBX 11 17 0 -2
BITMAP
000010
000060
0064A0
07FEE0
1FFFF0
2F41B0
7F0020
BFFF90
BF97F4
FE01F8
FD00FC
FC00BC
BD00BC
7E01F8
2F97F0
0BFF80
005400
ENDCHAR
STARTCHAR seven
ENCODING 55
SWIDTH 598 0
DWIDTH 11 0
BBX 12 14 0 -1
BITMAP
AAAA55
BFFFFD
7D57FC
3803F8
2407F4
1407E0
000BD0
000FC0
001F80
001F00
002E00
003D00
02FF40
1AABE4
ENDCHAR
STARTCHAR eight
ENCODING 56
SWIDTH 642 0
DWIDTH 12 0
BBX 12 15 0 -2
BITMAP
01A900
0BFFD0
2F42F4
3F01F8
3E00F8
3F01F8
1F97F0
1FFFF4
7F97FC
FE00FE
FD00BE
BE00FD
7F42FC
1FFFE0
016900
ENDCHAR
STARTCHAR nine
ENCODING 57
SWIDTH 610 0
DWIDTH 11 0
BBX 11 15 0 -2
BITMAP
06B900
1FEFC0
7E02F0
BD01F4
FC01F8
FD01FC
BE02FC
7FABF8
1FFFF8
1166F4
3403F0
2FAFD0
2FFF80
28A900
140000
ENDCHAR
STARTCHAR colon
ENCODING 58
SWIDTH 223 0
DWIDTH 4 0
BBX 4 8 0 -2
BITMAP
BD
FE
7D
00
14
BE
FE
24
ENDCHAR
STARTCHAR semicolon
ENCODING 59
SWIDTH 228 0
DWIDTH 4 0
BBX 4 10 0 -4
BITMAP
7D
FE
7D
00
10
BD
FE
6D
28
10
ENDCHAR
STARTCHAR less
ENCODING 60
SWIDTH 563 0
DWIDTH 10 0
BBX 11 12 0 0
BITMAP
000020
0001F4
001FF4
00BFF4
0BFF40
7FF400
7FC000
0BE000
01BD00
001F40
0002E0
000060
ENDCHAR
STARTCHAR equal
ENCODING 61
SWIDTH 531 0
DWIDTH 10 0
BBX 10 8 0 1
BITMAP
550000
FFFFD0
FFFFD0
AAA540
555590
FFFFD0
FFFFD0
055540
ENDCHAR
STARTCHAR greater
ENCODING 62
SWIDTH 576 0
DWIDTH 10 0
BBX 11 12 0 0
BITMAP
500000
BD0000
BF8000
BFF800
0BFF40
00BFE4
001FE0
007F40
01F800
0BD000
2E0000
240000
ENDCHAR
STARTCHAR question
ENCODING 63
SWIDTH 592 0
DWIDTH 11 0
BBX 11 17 0 -1
BITMAP
100000
304000
7FFE40
745FD0
9003F4
4001F4
0001F8
0002F4
065FE0
0BFF80
0BD000
0F8000
064000
140000
BF0000
7F4000
190000
ENDCHAR
STARTCHAR at
ENCODING 64
SWIDTH 792 0
DWIDTH 14 0
BBX 15 13 0 -1
BITMAP
00AFF800
07E56F40
2F4643D0
7D7EF1F0
B8B478F4
F4B478B8
F42AB8B8
F4F9B8B8
B8F4B4B4
7C7FF4F0
2F007AD0
0BE41A40
006A9000
ENDCHAR
STARTCHAR A
ENCODING 65
SWIDTH 788 0
DWIDTH 14 0
BBX 21 16 -3 -4
BITMAP
002FF8000000
0002FE000000
00007F000000
0000BF800000
0001EFC00000
0002CBE00000
000747F00000
000B57F80000
001FFFFC0000
002D55FE0000
0074007F0000
06F4003F4000
6FFE002FD000
0005401FFE40
0000007FA400
000000A40000
ENDCHAR
STARTCHAR B
ENCODING 66
SWIDTH 774 0
DWIDTH 14 0
BBX 16 14 -2 -2
BITMAP
6FFEA940
0BFFFFF4
01FC01FD
00FC003F
00FC007E
00FD56FD
00FFFFE0
00BEBFE0
00BD06F8
00BD00FD
00BD01FD
007E5BF8
02FFFF90
1FA95000
ENDCHAR
STARTCHAR C
ENCODING 67
SWIDTH 766 0
DWIDTH 14 0
BBX 14 14 0 -1
BITMAP
00054050
01BFF8D0
0BFEBFC0
2FD00BC0
3F800280
7F000080
BE000000
BE000000
7F000000
7F000040
2F800180
1FE007C0
07FFFEC0
006FE450
ENDCHAR
STARTCHAR D
ENCODING 68
SWIDTH 833 0
DWIDTH 15 0
BBX 16 13 -1 -1
BITMAP
BFFFFE40
07FFAFE0
00FE01FC
00FD00BD
00FD007F
00BD003F
00BD003F
00BD007F
00BD007E
00BC00FC
00BD5BF4
07FFFF80
19554000
ENDCHAR
STARTCHAR E
ENCODING 69
SWIDTH 781 0
DWIDTH 14 0
BBX 15 14 -1 -1
BITMAP
0156AAF4
6FFFFAF4
02FC00B4
01FC0474
01FC1420
01FC3410
00FDB400
00FFF410
00FEB420
00FC3420
00F81460
00F804A0
1BFFFFF0
55555550
ENDCHAR
STARTCHAR F
ENCODING 70
SWIDTH 731 0
DWIDTH 13 0
BBX 14 14 -1 -1
BITMAP
0055AAE0
7FFFFBE0
06FC01E0
01FC00E0
01FC20A0
01F83020
01FDB010
01FFF000
01FEF000
01F87000
00F82000
00F80000
02FD0000
6FFFD000
ENDCHAR
STARTCHAR G
ENCODING 71
SWIDTH 828 0
DWIDTH 15 0
BBX 16 15 0 -1
BITMAP
00000010
00154090
01FFFBD0
0BFABFC0
2FD00BC0
3F8002C0
7F000080
BF000040
BF01BFFD
7F001BD0
7F4007D0
2FC00BD0
0FF41FE0
02FFFDA0
006A9010
ENDCHAR
STARTCHAR H
ENCODING 72
SWIDTH 797 0
DWIDTH 14 0
BBX 17 15 -1 -2
BITMAP
0001AAA900
55406FF400
7FFE0BE000
07F00BE000
07F00BD000
07F00BD000
07F007D000
03FAAFD000
03FFABD000
03E007D000
03E007D000
03E00BE000
03E0BFFE40
1BF9000000
6AAA400000
ENDCHAR
STARTCHAR I
ENCODING 73
SWIDTH 445 0
DWIDTH 8 0
BBX 10 15 -1 -2
BITMAP
555550
1FFF90
02FC00
01FC00
01F800
01F800
01F800
01F800
00F800
00F800
00F800
00F800
00F800
06FE40
1AAA90
ENDCHAR
STARTCHAR J
ENCODING 74
SWIDTH 718 0
DWIDTH 13 0
BBX 16 16 -2 -3
BITMAP
000016BD
006BFFD0
00016F80
00001FC0
00000FC0
00000FD0
00000BD0
00000BD0
000007D0
555407D0
2FF80BD0
03D00BD0
02E00F80
00F97F40
006FF900
00014000
ENDCHAR
STARTCHAR K
ENCODING 75
SWIDTH 934 0
DWIDTH 17 0
BBX 21 16 -1 -2
BITMAP
000010000000
6FFF90000000
06FD06FFE400
01FC00BD0000
01FC07E00000
01FC6F400000
01FEFC000000
01FFBE000000
00FD2F400000
00F80BD00000
00F803F00000
00F801FC0000
01FD00BE0000
1FFFE43F8000
000001BFF900
000005555540
ENDCHAR
STARTCHAR L
ENCODING 76
SWIDTH 712 0
DWIDTH 13 0
BBX 14 14 -1 0
BITMAP
6FFFE000
02FD0000
01FD0000
01FC0000
00FC0000
00FC0000
00FC0010
00FC0020
00FC0060
00FC00A0
00BC00E0
00BD02E0
06FFFFE0
6AAA9550
ENDCHAR
STARTCHAR M
ENCODING 77
SWIDTH 1033 0
DWIDTH 19 0
BBX 21 14 -1 -1
BITMAP
6AA9000FFE40
07FE002FE400
01FF403FD000
01FF80BFD000
01FFD1FFD000
00EFE2DFD000
00F7F79FC000
00F2FF4FC000
00F0FE0FC000
00F0BD0FC000
00B0380FC000
00B0141FC000
06FE41BFF900
555554000000
ENDCHAR
STARTCHAR N
ENCODING 78
SWIDTH 840 0
DWIDTH 15 0
BBX 18 14 -1 -1
BITMAP
6AA86FFF90
0BFE06F800
01FF80B400
01FFD0B400
01EFF47400
01E7FC7000
01E1FE7000
01E0BFF000
01E02FF000
01E00BF000
01E003F000
0BFE01F000
BFFFE47000
0000001000
ENDCHAR
STARTCHAR O
ENCODING 79
SWIDTH 808 0
DWIDTH 15 0
BBX 15 12 0 -1
BITMAP
01BFF800
0BFABF40
2FD01FD0
7F400BE0
BE0007F0
BE0007F4
BE0007F0
7F000BE0
2F801FD0
0BFABF40
01BFF800
00050000
ENDCHAR
STARTCHAR P
ENCODING 80
SWIDTH 746 0
DWIDTH 13 0
BBX 15 13 -1 -1
BITMAP
55555000
1FFFFE40
02F95BF0
01F400F8
01F401F4
01F96BD0
01FFE900
01F80000
01FC0000
01FC0000
01FC0000
1BFF9000
6A955400
ENDCHAR
STARTCHAR Q
ENCODING 81
SWIDTH 789 0
DWIDTH 14 0
BBX 16 17 0 -5
BITMAP
005A9000
07FFFD00
1FE47F40
3F801FD0
7F000BE0
7E000BE0
7E000BE0
7F000BE0
2F401FC0
1FD07F40
06FFF900
005BF000
0002F400
0001FE50
0001FFF9
0007F940
001E4000
ENDCHAR
STARTCHAR R
ENCODING 82
SWIDTH 826 0
DWIDTH 15 0
BBX 20 17 -1 -5
BITMAP
6A95500000
1BFFFF9000
01F956F400
01F800B800
01F801F400
01FDAFD000
01FFFE0000
01FC2F4000
01FC0FC000
00FC0BE000
01FD03F400
1BFF91FC00
555554FFAA
0000007FE0
000001F900
0000028000
0000040000
ENDCHAR
STARTCHAR S
ENCODING 83
SWIDTH 661 0
DWIDTH 12 0
BBX 12 13 0 -1
BITMAP
06A905
2FEBED
7D01BD
BD001C
BF9408
7FFF80
1BFFF4
006FFD
2001FE
2800BE
3E41FD
37FFE4
205500
ENDCHAR
STARTCHAR T
ENCODING 84
SWIDTH 754 0
DWIDTH 14 0
BBX 13 13 0 -1
BITMAP
7FFFFF80
3EBFAB80
383F4380
343F4240
203F4140
103F4040
002F0000
002F0000
002F0000
002F0000
007F4000
06FFF400
05555500
ENDCHAR
STARTCHAR U
ENCODING 85
SWIDTH 725 0
DWIDTH 13 0
BBX 15 13 -1 -1
BITMAP
55402AA8
1FF907D0
07E003C0
0BE003C0
0BE002C0
0BE002C0
0BE002C0
0BE00280
0BE00280
07F40740
02FD6F00
00BFF900
00155000
ENDCHAR
STARTCHAR V
ENCODING 86
SWIDTH 786 0
DWIDTH 14 0
BBX 18 14 -2 -1
BITMAP
0006800000
06BE069400
6BF800BFD0
01FC003900
00BE007400
007F00E000
003F42C000
001FC38000
000FDB0000
0007EE0000
0003FC0000
0001F80000
0000F00000
0000600000
ENDCHAR
STARTCHAR W
ENCODING 87
SWIDTH 1026 0
DWIDTH 18 0
BBX 23 14 -2 -2
BITMAP
055A90055000
6FFE0101BFE4
02F803801E40
01FC07C02C00
00BD0BE03800
007F1FF47000
003F6FF8E000
002FBDFED000
000FF8BFC000
000BF47F8000
0007E02F4000
0002D01E0000
000180090000
000040040000
ENDCHAR
STARTCHAR X
ENCODING 88
SWIDTH 860 0
DWIDTH 15 0
BBX 18 12 -1 -1
BITMAP
1AAF915540
06FD0BFD00
00BF07D000
002F9F4000
000FFC0000
0007F80000
000BFD0000
007EBF4000
01F42FC000
1BE00FE000
AFF80BFE00
00006AAA90
ENDCHAR
STARTCHAR Y
ENCODING 89
SWIDTH 848 0
DWIDTH 15 0
BBX 18 14 -2 -2
BITMAP
55AA800000
1BFE019550
00BE00BF80
002F807800
000FE1E000
0003FB8000
0001FE0000
00007D0000
00007D0000
00007D0000
00007D0000
0000BE0000
0007FFE400
0015555400
ENDCHAR
STARTCHAR Z
ENCODING 90
SWIDTH 685 0
DWIDTH 12 0
BBX 13 11 0 0
BITMAP
6AAFFF80
7FEBFE00
3803FC00
340BF400
202FD000
107F8100
01FE0300
07FC0700
0FF40F00
2FFFFF00
6AAAAA00
ENDCHAR
STARTCHAR bracketleft
ENCODING 91
SWIDTH 380 0
DWIDTH 7 0
BBX 7 17 1 -2
BITMAP
AAA4
FF90
FC00
FC00
BC00
BC00
BC00
BC00
BC00
BC00
BC00
BC00
BC00
B800
B800
BD00
7FD0
ENDCHAR
STARTCHAR backslash
ENCODING 92
SWIDTH 680 0
DWIDTH 12 0
BBX 12 17 0 -1
BITMAP
080000
7E0000
7F4000
2FC000
1FD000
0BF000
03F800
01FD00
00BE00
003F40
001FC0
000BD0
0007F0
0002F8
0000FD
00007E
00002D
ENDCHAR
STARTCHAR bracketright
ENCODING 93
SWIDTH 371 0
DWIDTH 7 0
BBX 7 17 -1 -2
BITMAP
6AA8
0BFC
00FC
00FC
00FC
00F8
00F8
00F8
00F8
00F8
00B8
00B8
00B8
00B8
00B8
01F8
1FF4
ENDCHAR
STARTCHAR asciicircum
ENCODING 94
SWIDTH 671 0
DWIDTH 12 0
BBX 12 11 0 5
BITMAP
001000
003800
00BD00
01FF00
03FF80
07F7D0
0FE1F0
2FC0B8
7F402D
BF000E
690000
ENDCHAR
STARTCHAR underscore
ENCODING 95
SWIDTH 840 0
DWIDTH 15 0
BBX 15 4 0 -2
BITMAP
55555554
FFFFFFFC
FFFFFFFC
AAAAFFFC
ENDCHAR
STARTCHAR grave
ENCODING 96
SWIDTH 707 0
DWIDTH 13 0
BBX 4 5 5 10
BITMAP
18
BC
3D
1E
04
ENDCHAR
STARTCHAR a
ENCODING 97
SWIDTH 572 0
DWIDTH 10 0
BBX 11 11 0 -1
BITMAP
06F900
1F5F80
3E07D0
3E07D0
1557D0
2FFFD0
BD07D0
BD0BC0
3FFFC0
059FE4
000554
ENDCHAR
STARTCHAR b
ENCODING 98
SWIDTH 723 0
DWIDTH 13 0
BBX 15 17 -2 -3
BITMAP
00140000
6FFD0000
16FD0000
00FC0000
00FC0000
00FC0000
00FC0000
00FC0000
00FD5500
00BFFFE0
00BD07F4
00B801F8
00B801F8
00B802F4
00B95BD0
02FFFE00
0A954000
ENDCHAR
STARTCHAR c
ENCODING 99
SWIDTH 589 0
DWIDTH 11 0
BBX 11 10 0 -1
BITMAP
01BE40
0BEBD0
2F42F0
3E02F0
7E0050
7E0000
7F0014
3F8070
1FFFE0
02FF40
ENDCHAR
STARTCHAR d
ENCODING 100
SWIDTH 713 0
DWIDTH 13 0
BBX 14 17 0 -3
BITMAP
0006FE80
00006F80
00002F40
00002F40
00002F40
00002F00
00003F00
02FE7F00
1FFBFE00
3F407E00
7E003D00
7E003D00
3E007D00
2F807C00
0BFEFC00
006ABE40
00007A50
ENDCHAR
STARTCHAR e
ENCODING 101
SWIDTH 593 0
DWIDTH 11 0
BBX 11 10 0 -1
BITMAP
001400
06FF40
1FABD0
3F02F0
7E01F4
7FFFF4
7E5550
3F0010
1FEAD0
02FE00
ENDCHAR
STARTCHAR f
ENCODING 102
SWIDTH 507 0
DWIDTH 9 0
BBX 11 25 -1 -7
BITMAP
000100
002FE0
00BDB8
00F47C
01F47C
01F414
01F400
01F400
01F400
2FFFF0
1AFE90
00F800
00FC00
00BC00
00BC00
00BD00
007D00
007D00
003E00
003E00
103E00
B83E00
B83D00
7DB800
1FE000
ENDCHAR
STARTCHAR g
ENCODING 103
SWIDTH 606 0
DWIDTH 11 0
BBX 12 21 0 -9
BITMAP
000010
0001FD
0003FE
06FF7D
1F9BD0
3E02F0
7D01F4
BC01F4
7D01F4
3E02F0
1F9BC0
1FFA00
3F9400
2FFFD0
2FABF8
BD00BD
FC007D
FC007D
BD00BC
2F9BF4
06FE40
ENDCHAR
STARTCHAR h
ENCODING 104
SWIDTH 678 0
DWIDTH 12 0
BBX 15 18 -2 -2
BITMAP
00140000
6BFC0000
16FC0000
00FC0000
00FC0000
00FC0000
00FC0000
00FC0000
00FC5000
00FFFE40
00FD5FD0
00F807E0
00B803E0
00B803E0
00B803D0
07FE43D0
04002FF8
00000014
ENDCHAR
STARTCHAR i
ENCODING 105
SWIDTH 393 0
DWIDTH 7 0
BBX 8 15 0 0
BITMAP
0040
07E0
0BF0
07E0
0140
5550
6FF0
07E0
03E0
03E0
03E0
03D0
03D0
0BE0
6FFD
ENDCHAR
STARTCHAR j
ENCODING 106
SWIDTH 385 0
DWIDTH 7 0
BBX 9 19 -2 -6
BITMAP
01F400
03F800
02F800
005000
015900
07FD00
007E00
007E00
003E00
003E00
002F00
002F00
002F00
001F40
041F40
3D1F00
7D1F00
2E6E00
0BF800
ENDCHAR
STARTCHAR k
ENCODING 107
SWIDTH 749 0
DWIDTH 13 0
BBX 17 17 -2 -2
BITMAP
0154000000
5BFD000000
00FD000000
00FD6AAA40
00FD1FF900
00FC0B9000
00FC2E0000
00FDF40000
00BFF80000
00BFBD0000
00BC2F0000
00BC0F4000
00BC07C000
00BD02E000
0BFF91FA40
000007F940
0000190000
ENDCHAR
STARTCHAR l
ENCODING 108
SWIDTH 369 0
DWIDTH 7 0
BBX 9 18 -2 -2
BITMAP
555400
1BFD00
00FD00
00FD00
00FC00
00FC00
00FC00
00BC00
00BC00
00BC00
00BC00
00BC00
00BC00
00B800
007800
00BD00
07FF80
055400
ENDCHAR
STARTCHAR m
ENCODING 109
SWIDTH 990 0
DWIDTH 18 0
BBX 20 9 -1 1
BITMAP
05A5501500
BFFFFEFFC0
07F9BFEBE0
02F02F42F0
02F01F02F0
01E01F02E0
01E01E02E0
1BF91E1BF9
0001BF9000
ENDCHAR
STARTCHAR n
ENCODING 110
SWIDTH 643 0
DWIDTH 12 0
BBX 14 9 -1 1
BITMAP
05A15000
BFFFFD00
07F9BF00
02F02F00
02F01F00
01E01F00
01E01F00
1BF91E00
0001BF90
ENDCHAR
STARTCHAR o
ENCODING 111
SWIDTH 705 0
DWIDTH 13 0
BBX 13 9 0 0
BITMAP
00594000
0BFFF800
3F40BE00
BD002F40
BC001F40
BD001F40
7E003F00
2F95FD00
06FFE000
ENDCHAR
STARTCHAR p
ENCODING 112
SWIDTH 723 0
DWIDTH 13 0
BBX 15 15 -2 -5
BITMAP
5ABC0000
1BFDA900
00FFBFD0
00FC02F4
00FC00F8
00BC00F8
00BC00F8
00BD06F4
00BFFFD0
00BD6900
007C0000
007C0000
00BD0000
06FFD000
15540000
ENDCHAR
STARTCHAR q
ENCODING 113
SWIDTH 682 0
DWIDTH 12 0
BBX 14 15 0 -4
BITMAP
00000050
0000FF90
06FEFD00
2FA6FC00
7D00FC00
BC00F800
BC00F800
BD00F800
2F96F800
0BFFF800
0050F800
0000F400
0000F400
0006F900
002AAF90
ENDCHAR
STARTCHAR r
ENCODING 114
SWIDTH 595 0
DWIDTH 11 0
BBX 13 11 -1 0
BITMAP
00681400
6FFEFF00
1AFFFF40
01FC2E00
00F80000
00F80000
00F80000
00F80000
00B80000
02FF9000
1FEA5000
ENDCHAR
STARTCHAR s
ENCODING 115
SWIDTH 533 0
DWIDTH 10 0
BBX 10 11 0 0
BITMAP
019040
2FFD80
7C1BC0
BD02C0
7F9080
2FFE00
06FF80
606FD0
7807E0
7FABC0
96FE00
ENDCHAR
STARTCHAR t
ENCODING 116
SWIDTH 422 0
DWIDTH 8 0
BBX 8 17 0 -1
BITMAP
01C0
02C0
03C0
1B80
BFE9
BFFF
1F45
1F40
1F40
2F40
2F00
2F00
2F01
2F06
2FAD
0FF8
0150
ENDCHAR
STARTCHAR u
ENCODING 117
SWIDTH 614 0
DWIDTH 11 0
BBX 13 10 -1 -1
BITMAP
BFC6A900
1FC1BE00
0F803E00
0F803D00
0F803D00
0F807C00
0B807C00
07E6F800
01FFBE40
00146900
ENDCHAR
STARTCHAR v
ENCODING 118
SWIDTH 639 0
DWIDTH 12 0
BBX 15 11 -2 -1
BITMAP
005A0000
6FF45500
07F06FF8
01F80B40
00FC0E00
007E2C00
002F7800
001FF000
000BE000
0003C000
00018000
ENDCHAR
STARTCHAR w
ENCODING 119
SWIDTH 805 0
DWIDTH 15 0
BBX 19 10 -2 0
BITMAP
6ABE006AA4
1BF0241F80
02F43C1D00
01FC7D3C00
00BDFE7800
007FEFF000
002F8FE000
001F4BC000
000B038000
0005024000
ENDCHAR
STARTCHAR x
ENCODING 120
SWIDTH 717 0
DWIDTH 13 0
BBX 15 11 -1 -1
BITMAP
15AA0000
6BF5AAA4
02F82F40
00BEB800
003FE000
001FD000
002FF000
01F5F800
6FF87E00
01557FE8
0001A540
ENDCHAR
STARTCHAR y
ENCODING 121
SWIDTH 655 0
DWIDTH 12 0
BBX 13 18 -1 -8
BITMAP
50000000
2E46A500
0FE0BF40
0BE03F40
0FD03F00
1FC03F00
1FC03F00
0FE07F00
07FFFF00
00697F00
00003F00
00003F00
00003E00
0B407E00
1F40BD00
0F00FC00
07EBF400
01BF9000
ENDCHAR
STARTCHAR z
ENCODING 122
SWIDTH 549 0
DWIDTH 10 0
BBX 11 11 0 -1
BITMAP
155554
BFFFF0
795FD0
743F40
30BE00
11FC10
07F450
0FE0D0
2FEAE0
6FFFE0
000150
ENDCHAR
STARTCHAR braceleft
ENCODING 123
SWIDTH 708 0
DWIDTH 13 0
BBX 9 17 2 -2
BITMAP
06AA40
0BF900
07D000
07D000
07D000
07D000
07D000
07D000
BFD000
6FD000
07D000
07D000
07D000
07D000
03C000
03E000
03FE00
ENDCHAR
STARTCHAR bar
ENCODING 124
SWIDTH 304 0
DWIDTH 5 0
BBX 4 17 1 -2
BITMAP
BD
BD
BD
BD
BC
BC
BC
BC
BC
BC
BC
BC
BC
BC
BC
BC
54
ENDCHAR
STARTCHAR braceright
ENCODING 125
SWIDTH 517 0
DWIDTH 9 0
BBX 10 17 0 -2
BITMAP
6AA800
1BF800
01F800
00F800
00F800
00F800
00F800
00F800
00FF90
00FE40
00F800
00F800
00F800
00F400
00F400
01F400
1FF400
ENDCHAR
STARTCHAR asciitilde
ENCODING 126
SWIDTH 466 0
DWIDTH 8 0
BBX 9 4 0 4
BITMAP
040040
FFEB40
FFFF40
D1BE40
ENDCHAR
STARTCHAR uni00A0
ENCODING 160
SWIDTH 320 0
DWIDTH 6 0
BBX 1 1 0 0
BITMAP
00
ENDCHAR
STARTCHAR exclamdown
ENCODING 161
SWIDTH 305 0
DWIDTH 6 0
BBX 6 16 0 -6
BITMAP
0680
0FD0
0780
0500
0F40
0F40
1F40
1F40
2F40
2F40
3F00
3F00
7F00
7F00
BF00
5600
ENDCHAR
STARTCHAR cent
ENCODING 162
SWIDTH 417 0
DWIDTH 8 0
BBX 8 15 0 -2
BITMAP
03D0
03D0
03D0
1BF4
7C2D
B42D
F004
F000
F401
B805
3FB8
0BE0
03D0
03D0
03D0
ENDCHAR
STARTCHAR sterling
ENCODING 163
SWIDTH 658 0
DWIDTH 12 0
BBX 12 14 0 -1
BITMAP
000001
006A46
03FFED
0BD0BD
0F802C
AFE94C
FFFF48
57D500
ABEA41
FFFF83
07D547
0BD56E
1FFFFE
156AAA
ENDCHAR
STARTCHAR currency
ENCODING 164
SWIDTH 358 0
DWIDTH 6 0
BBX 6 7 0 3
BITMAP
1010
BFF0
7EE0
38E0
3EE0
BAF0
5010
ENDCHAR
STARTCHAR yen
ENCODING 165
SWIDTH 796 0
DWIDTH 14 0
BBX 16 12 -2 0
BITMAP
15A90000
5BF00AAA
01F802E4
007E0740
001F9D00
0007F800
002AF500
002AFA00
002AFA40
0016FA00
0006F400
006AAA90
ENDCHAR
STARTCHAR brokenbar
ENCODING 166
SWIDTH 304 0
DWIDTH 5 0
BBX 4 17 1 -2
BITMAP
BD
BD
BD
BD
BD
BC
54
00
00
54
BC
BC
BC
BC
BC
BC
54
ENDCHAR
STARTCHAR section
ENCODING 167
SWIDTH 646 0
DWIDTH 12 0
BBX 11 20 0 -4
BITMAP
01A804
0FFF54
3D02F4
7D00B0
7E0020
3FE400
1FFE40
0BFFE0
2E6FF8
3D06FC
7D00FC
3F90F8
2FFFE0
0BFFD0
01BFF4
200BF8
3400FC
3E00F8
3FEAF4
21BF90
ENDCHAR
STARTCHAR dieresis
ENCODING 168
SWIDTH 708 0
DWIDTH 13 0
BBX 6 2 3 15
BITMAP
38E0
78F0
ENDCHAR
STARTCHAR copyright
ENCODING 169
SWIDTH 700 0
DWIDTH 13 0
BBX 13 11 0 1
BITMAP
06FFD000
1F95B800
7D292E00
B4E68B40
F1C18780
F2C00780
F1C04740
B4F68B40
3C291E00
1F55B800
02FF9000
ENDCHAR
STARTCHAR ordfeminine
ENCODING 170
SWIDTH 399 0
DWIDTH 7 0
BBX 8 8 0 7
BITMAP
0100
7FD0
B4F0
64B4
7FF4
F4F0
FEF0
16F9
ENDCHAR
STARTCHAR guillemotleft
ENCODING 171
SWIDTH 424 0
DWIDTH 8 0
BBX 8 9 0 0
BITMAP
0204
0B1D
1E3C
3CB8
B9F0
BCF4
2D78
0E2C
070D
ENDCHAR
STARTCHAR logicalnot
ENCODING 172
SWIDTH 541 0
DWIDTH 10 0
BBX 11 9 0 1
BITMAP
400010
800050
BAA9D0
BFFFD0
BFABD0
8002D0
4001C0
0001D0
0006A4
ENDCHAR
STARTCHAR sfthyphen
ENCODING 173
SWIDTH 530 0
DWIDTH 10 0
BBX 10 4 0 4
BITMAP
AAA950
FFFFD0
FFFFD0
555000
ENDCHAR
STARTCHAR registered
ENCODING 174
SWIDTH 700 0
DWIDTH 13 0
BBX 13 12 0 0
BITMAP
01BF9000
1FE6F800
3D002E00
B5BADF40
F07ED740
F0380780
F0380780
B4280B40
78691E00
1F41BC00
06FFE000
00150000
ENDCHAR
STARTCHAR macron
ENCODING 175
SWIDTH 705 0
DWIDTH 13 0
BBX 6 3 4 13
BITMAP
5550
7FE0
7FE0
ENDCHAR
STARTCHAR degree
ENCODING 176
SWIDTH 364 0
DWIDTH 7 0
BBX 5 5 1 8
BITMAP
2900
BB40
D380
BB40
2900
ENDCHAR
STARTCHAR plusminus
ENCODING 177
SWIDTH 607 0
DWIDTH 11 0
BBX 11 12 0 0
BITMAP
005400
00FC00
00F800
BFFEA4
BFFFF4
BEFEA4
00B800
00B800
005400
7FFEA4
7FFFF4
7AAAA4
ENDCHAR
STARTCHAR twosuperior
ENCODING 178
SWIDTH 440 0
DWIDTH 8 0
BBX 8 10 0 6
BITMAP
56A0
3FFC
382E
302E
20BD
17E6
2E4A
BEAD
FFFD
0554
ENDCHAR
STARTCHAR threesuperior
ENCODING 179
SWIDTH 442 0
DWIDTH 8 0
BBX 8 10 0 6
BITMAP
4040
6BF4
3D7D
342D
11BD
07FD
207E
343E
7FFD
96A0
ENDCHAR
STARTCHAR acute
ENCODING 180
SWIDTH 694 0
DWIDTH 13 0
BBX 4 5 5 13
BITMAP
10
3D
7C
B8
60
ENDCHAR
STARTCHAR mu
ENCODING 181
SWIDTH 1000 0
DWIDTH 18 0
BBX 14 14 0 -5
BITMAP
6FE1AA40
0BE07F40
07D01F00
07D01F00
07D02F00
03D02E00
03D02E00
03F9BD00
03FFEF90
03D42940
03D00000
03D00000
03D00000
02800000
ENDCHAR
STARTCHAR paragraph
ENCODING 182
SWIDTH 782 0
DWIDTH 14 0
BBX 16 13 -1 -1
BITMAP
005AAAB9
0BFFFF90
3E4B8E00
7C0B8E00
3E4B5E00
0BFFEE00
005BFE00
000B5E00
000B5E00
000B5E00
000BBF40
006FFFE4
01A55550
ENDCHAR
STARTCHAR periodcentered
ENCODING 183
SWIDTH 226 0
DWIDTH 4 0
BBX 4 4 0 5
BITMAP
14
BE
BE
29
ENDCHAR
STARTCHAR cedilla
ENCODING 184
SWIDTH 780 0
DWIDTH 14 0
BBX 4 7 5 -4
BITMAP
04
34
BD
5B
5B
BE
14
ENDCHAR
STARTCHAR onesuperior
ENCODING 185
SWIDTH 390 0
DWIDTH 7 0
BBX 7 10 0 6
BITMAP
0150
6FD0
1BD0
03D0
03D0
03D0
03D0
03C0
07E0
1AA4
ENDCHAR
STARTCHAR ordmasculine
ENCODING 186
SWIDTH 449 0
DWIDTH 8 0
BBX 10 7 -1 7
BITMAP
06A900
2FAF40
7C07C0
7C03D0
3D07C0
1FFE00
015400
ENDCHAR
STARTCHAR guillemotright
ENCODING 187
SWIDTH 415 0
DWIDTH 7 0
BBX 8 9 0 0
BITMAP
5080
B1D0
78F0
3D78
1F3D
2E7D
3CB4
B4E0
A1C0
ENDCHAR
STARTCHAR onequarter
ENCODING 188
SWIDTH 918 0
DWIDTH 17 0
BBX 16 19 0 -3
BITMAP
01500060
6FD000B8
1BD001F4
03D003E0
03D00BC0
03D01F40
03D02E00
03C07D04
07E0F824
1AA6F0B4
0003D1F4
000B87F5
001F1EF6
003D3EFE
0078BAFE
00F400B6
02E002F9
03C01AA9
00400000
ENDCHAR
STARTCHAR onehalf
ENCODING 189
SWIDTH 1007 0
DWIDTH 18 0
BBX 18 19 0 -3
BITMAP
0150006000
6FD000B800
1BD001F400
03D003E000
03D00BC000
03D01F4000
03D02E0000
03C07D0000
07E0F80000
1AA6F21A00
0003D3FFD0
000B82D2E0
001F0241F0
003D0207D0
0078012F60
00F401F460
02E007E5E0
03C00BFFE0
0040055550
ENDCHAR
STARTCHAR threequarters
ENCODING 190
SWIDTH 936 0
DWIDTH 17 0
BBX 17 19 0 -3
BITMAP
4040002000
6BF4007C00
3D7D00F800
342D02F000
11BD07D000
07FD0B8000
207E1F0000
343E3E0400
7FFDBC1800
96A1F47800
0002E1F800
0007C3F800
000F4BBA00
002E2EBF00
003C7AFF00
00B8007A00
01F001B900
02D006AA40
0040000000
ENDCHAR
STARTCHAR questiondown
ENCODING 191
SWIDTH 568 0
DWIDTH 10 0
BBX 11 17 0 -6
BITMAP
000140
000BE0
000BF0
000290
000900
001F40
002F40
1BFF00
7FAB00
FD0000
FC0000
F80004
FD0020
7F40B0
1BFFE0
005590
000050
ENDCHAR
STARTCHAR Agrave
ENCODING 192
SWIDTH 788 0
DWIDTH 14 0
BBX 21 22 -3 -4
BITMAP
000060000000
0001F4000000
0000B8000000
00007C000000
000010000000
000000000000
002FF8000000
0002FE000000
00007F000000
0000BF800000
0001EFC00000
0002CBE00000
000747F00000
000B57F80000
001FFFFC0000
002D55FE0000
0074007F0000
06F4003F4000
6FFE002FD000
0005401FFE40
0000007FA400
000000A40000
ENDCHAR
STARTCHAR Aacute
ENCODING 193
SWIDTH 788 0
DWIDTH 14 0
BBX 21 22 -3 -4
BITMAP
000004000000
00001F000000
00002E000000
00003C000000
000014000000
000000000000
002FF8000000
0002FE000000
00007F000000
0000BF800000
0001EFC00000
0002CBE00000
000747F00000
000B57F80000
001FFFFC0000
002D55FE0000
0074007F0000
06F4003F4000
6FFE002FD000
0005401FFE40
0000007FA400
000000A40000
ENDCHAR
STARTCHAR Acircumflex
ENCODING 194
SWIDTH 788 0
DWIDTH 14 0
BBX 21 22 -3 -4
BITMAP
000014000000
00003D000000
0000BF000000
0002E7800000
000140800000
000000000000
002FF8000000
0002FE000000
00007F000000
0000BF800000
0001EFC00000
0002CBE00000
000747F00000
000B57F80000
001FFFFC0000
002D55FE0000
0074007F0000
06F4003F4000
6FFE002FD000
0005401FFE40
0000007FA400
000000A40000
ENDCHAR
STARTCHAR Atilde
ENCODING 195
SWIDTH 788 0
DWIDTH 14 0
BBX 21 21 -3 -4
BITMAP
0001A4800000
0001FFC00000
00019F800000
000000000000
000000000000
002FF8000000
0002FE000000
00007F000000
0000BF800000
0001EFC00000
0002CBE00000
000747F00000
000B57F80000
001FFFFC0000
002D55FE0000
0074007F0000
06F4003F4000
6FFE002FD000
0005401FFE40
0000007FA400
000000A40000
ENDCHAR
STARTCHAR Adieresis
ENCODING 196
SWIDTH 788 0
DWIDTH 14 0
BBX 21 20 -3 -4
BITMAP
0001D7800000
0001D7800000
000000000000
000000000000
002FF8000000
0002FE000000
00007F000000
0000BF800000
0001EFC00000
0002CBE00000
000747F00000
000B57F80000
001FFFFC0000
002D55FE0000
0074007F0000
06F4003F4000
6FFE002FD000
0005401FFE40
0000007FA400
000000A40000
ENDCHAR
STARTCHAR Aring
ENCODING 197
SWIDTH 788 0
DWIDTH 14 0
BBX 21 20 -3 -4
BITMAP
000004000000
00007E000000
0000A7000000
00007A000000
002FFD000000
0002FE000000
00007F000000
0000BF800000
0001EFC00000
0002CBE00000
000747F00000
000B57F80000
001FFFFC0000
002D55FE0000
0074007F0000
06F4003F4000
6FFE002FD000
0005401FFE40
0000007FA400
000000A40000
ENDCHAR
STARTCHAR AE
ENCODING 198
SWIDTH 1019 0
DWIDTH 18 0
BBX 22 14 -4 -1
BITMAP
000556AAAFE0
000BFFFFEBE0
0000BFF801E0
00003EF810A0
0000B5F82050
0001E1F87010
0003C1F9B000
000741FFF000
000FAAFEF040
002FFFF87080
007555F820C0
00E001F801D0
1BE01BFFFFD0
ABFD55555540
ENDCHAR
STARTCHAR Ccedilla
ENCODING 199
SWIDTH 766 0
DWIDTH 14 0
BBX 14 20 0 -7
BITMAP
00054050
01BFF8D0
0BFEBFC0
2FD00BC0
3F800280
7F000080
BE000000
BE000000
7F000000
7F000040
2F800180
0FE007C0
07FFFEC0
006FE450
001D0000
003F4000
0006C000
0026C000
002F4000
00040000
ENDCHAR
STARTCHAR Egrave
ENCODING 200
SWIDTH 781 0
DWIDTH 14 0
BBX 15 19 -1 -1
BITMAP
00064000
000F8000
0007C000
0002D000
00014000
0156AAF4
6FFFFAF4
02FC00B4
01FC0474
01FC1420
01FC3410
00FDB400
00FFF410
00FEB420
00FC3420
00F81460
00F804A0
1BFFFFF0
55555550
ENDCHAR
STARTCHAR Eacute
ENCODING 201
SWIDTH 781 0
DWIDTH 14 0
BBX 15 19 -1 -1
BITMAP
00004000
0000F400
0001F000
0002D000
00018000
0156AAF4
6FFFFAF4
02FC00B4
01FC0474
01FC1420
01FC3410
00FDB400
00FFF410
00FEB420
00FC3420
00F81460
00F804A0
1BFFFFF0
55555550
ENDCHAR
STARTCHAR Ecircumflex
ENCODING 202
SWIDTH 781 0
DWIDTH 14 0
BBX 15 20 -1 -1
BITMAP
00014000
0007C000
000FE000
003DB800
00201400
00000000
0156AAF4
6FFFFAF4
02FC00B4
01FC0474
01FC1420
01FC3410
00FDB400
00FFF410
00FEB420
00FC3420
00F81460
00F804A0
1BFFFFF0
55555550
ENDCHAR
STARTCHAR Edieresis
ENCODING 203
SWIDTH 781 0
DWIDTH 14 0
BBX 15 17 -1 -1
BITMAP
001D7800
001D7800
00000000
0156AAF4
6FFFFAF4
02FC00B4
01FC0474
01FC1420
01FC3410
00FDB400
00FFF410
00FEB420
00FC3420
00F81460
00F804A0
1BFFFFF0
55555550
ENDCHAR
STARTCHAR Igrave
ENCODING 204
SWIDTH 445 0
DWIDTH 8 0
BBX 10 20 -1 -2
BITMAP
019000
03E000
01F000
00F400
005000
555550
1FFF90
02FC00
01FC00
01F800
01F800
01F800
01F800
00F800
00F800
00F800
00F800
00F800
06FE40
1AAA90
ENDCHAR
STARTCHAR Iacute
ENCODING 205
SWIDTH 445 0
DWIDTH 8 0
BBX 10 20 -1 -2
BITMAP
001000
003D00
007C00
00B800
006000
555550
1FFF90
02FC00
01FC00
01F800
01F800
01F800
01F800
00F800
00F800
00F800
00F800
00F800
06FE40
1AAA90
ENDCHAR
STARTCHAR Icircumflex
ENCODING 206
SWIDTH 445 0
DWIDTH 8 0
BBX 10 20 -1 -2
BITMAP
001000
00B400
02FD00
079F00
050200
555550
1FFF90
02FC00
01FC00
01F800
01F800
01F800
01F800
00F800
00F800
00F800
00F800
00F800
06FE40
1AAA90
ENDCHAR
STARTCHAR Idieresis
ENCODING 207
SWIDTH 445 0
DWIDTH 8 0
BBX 10 18 -1 -2
BITMAP
074E00
078E00
000000
555550
1FFF90
02FC00
01FC00
01F800
01F800
01F800
01F800
00F800
00F800
00F800
00F800
00F800
06FE40
1AAA90
ENDCHAR
STARTCHAR Eth
ENCODING 208
SWIDTH 1000 0
DWIDTH 18 0
BBX 17 13 1 -1
BITMAP
BFFFFE4000
07FFAFF400
00FE01FC00
00FE007E00
00BE003F00
3AFEA43F40
7FFFF43F40
15BE503F00
007D007E00
007D00BD00
00BE5BF800
07FFFF9000
1955400000
ENDCHAR
STARTCHAR Ntilde
ENCODING 209
SWIDTH 840 0
DWIDTH 15 0
BBX 18 19 -1 -1
BITMAP
000A450000
000FFD0000
0009BD0000
0000000000
0000000000
6AA86FFF90
0BFE06F800
01FF80B400
01FFD0B400
01EFF47400
01E7FC7000
01E1FE7000
01E0BFF000
01E02FF000
01E00BF000
01E003F000
0BFE01F000
BFFFE47000
0000001000
ENDCHAR
STARTCHAR Ograve
ENCODING 210
SWIDTH 808 0
DWIDTH 15 0
BBX 15 18 0 -1
BITMAP
00060000
001F4000
000B8000
0003C000
00010000
00000000
01BFF800
0BFABF40
2FD01FD0
7F400BE0
BE0007F0
BE0007F4
BE0007F0
7F000BE0
2F801FD0
0BFABF40
01BFF800
00050000
ENDCHAR
STARTCHAR Oacute
ENCODING 211
SWIDTH 808 0
DWIDTH 15 0
BBX 15 18 0 -1
BITMAP
00010000
0003D000
0007D000
000B8000
00020000
00000000
01BFF800
0BFABF40
2FD01FD0
7F400BE0
BE0007F0
BE0007F4
BE0007F0
7F000BE0
2F801FD0
0BFABF40
01BFF800
00050000
ENDCHAR
STARTCHAR Ocircumflex
ENCODING 212
SWIDTH 808 0
DWIDTH 15 0
BBX 15 18 0 -1
BITMAP
00010000
000B4000
002FD000
0079F000
00502000
00000000
01BFF800
0BFABF40
2FD01FD0
7F400BE0
BE0007F0
BE0007F4
BE0007F0
7F000BE0
2F801FD0
0BFABF40
01BFF800
00050000
ENDCHAR
STARTCHAR Otilde
ENCODING 213
SWIDTH 808 0
DWIDTH 15 0
BBX 15 17 0 -1
BITMAP
00291400
003FF400
0026F400
00000000
00000000
01BFF800
0BFABF40
2FD01FD0
7F400BE0
BE0007F0
BE0007F4
BE0007F0
7F000BE0
2F801FD0
0BFABF40
01BFF800
00050000
ENDCHAR
STARTCHAR Odieresis
ENCODING 214
SWIDTH 808 0
DWIDTH 15 0
BBX 15 16 0 -1
BITMAP
0078E000
0078E000
00000000
00000000
01BFF800
0BFABF40
2FD01FD0
7F400BE0
BE0007F0
BE0007F4
BE0007F0
7F000BE0
2F801FD0
0BFABF40
01BFF800
00050000
ENDCHAR
STARTCHAR multiply
ENCODING 215
SWIDTH 556 0
DWIDTH 10 0
BBX 10 10 0 1
BITMAP
180240
7E0BC0
7FAFE0
1FFF80
07FD00
07FD00
1FFF40
7F5FD0
7D07D0
100040
ENDCHAR
STARTCHAR Oslash
ENCODING 216
SWIDTH 808 0
DWIDTH 15 0
BBX 15 15 0 -2
BITMAP
00000900
00002F40
01BFFF00
0BFAFF40
2FD1FFD0
7F42FBE0
BE07D7F0
BE0F87F4
BF1F47F0
7F7E0BE0
2FFC1FD0
0BFABF40
02FFF800
07C50000
06400000
ENDCHAR
STARTCHAR Ugrave
ENCODING 217
SWIDTH 725 0
DWIDTH 13 0
BBX 15 18 -1 -1
BITMAP
00064000
000F8000
000BC000
0003D000
00014000
55402AA8
1FF907D0
07E003C0
0BE003C0
0BE002C0
0BE002C0
0BE002C0
0BE00280
0BE00280
07F40740
02FD6F00
00BFF900
00155000
ENDCHAR
STARTCHAR Uacute
ENCODING 218
SWIDTH 725 0
DWIDTH 13 0
BBX 15 19 -1 -1
BITMAP
00010000
0002E000
0003D000
00078000
00024000
00000000
55402AA8
1FF907D0
07E003C0
0BE003C0
0BE002C0
0BE002C0
0BE002C0
0BE00280
0BE00280
07F40740
02FD6F00
00BFF900
00155000
ENDCHAR
STARTCHAR Ucircumflex
ENCODING 219
SWIDTH 725 0
DWIDTH 13 0
BBX 15 19 -1 -1
BITMAP
00014000
0007C000
000FE000
003DB800
00201400
00000000
55402AA8
1FF907D0
07E003C0
0BE003C0
0BE002C0
0BE002C0
0BE002C0
0BE00280
0BE00280
07F40740
02FD6F00
00BFF900
00155000
ENDCHAR
STARTCHAR Udieresis
ENCODING 220
SWIDTH 725 0
DWIDTH 13 0
BBX 15 16 -1 -1
BITMAP
001D7800
001D7800
00000000
55402AA8
1FF907D0
07E003C0
0BE003C0
0BE002C0
0BE002C0
0BE002C0
0BE00280
0BE00280
07F40740
02FD6F00
00BFF900
00155000
ENDCHAR
STARTCHAR Yacute
ENCODING 221
SWIDTH 848 0
DWIDTH 15 0
BBX 18 19 -2 -2
BITMAP
0000010000
00000B8000
00000F4000
00001F0000
0000050000
55AA800000
1BFE019550
00BE00BF80
002F807800
000FE1E000
0003FB8000
0001FE0000
00007D0000
00007D0000
00007D0000
00007D0000
0000BE0000
0007FFE400
0015555400
ENDCHAR
STARTCHAR Thorn
ENCODING 222
SWIDTH 745 0
DWIDTH 13 0
BBX 15 13 -1 -1
BITMAP
55555000
1FFF4000
02F80000
01FFFA40
01FAAFE0
01F401F4
01F400F4
01F85BE0
01FFFE40
01FD4000
01FC0000
1BFF8000
6A955400
ENDCHAR
STARTCHAR germandbls
ENCODING 223
SWIDTH 986 0
DWIDTH 18 0
BBX 19 24 -1 -7
BITMAP
0001A40000
001FFF4000
007E07C000
00B802E000
00F401F000
01F401F000
01F401F000
01F403E000
2FF807D000
1AF80F8000
00F81F4000
00BC2F0000
00BC2F8000
00BC0FF900
007D03FFD0
007D047FF4
007D1C06FC
003E1F40F8
003E1FFBF4
603E146A40
B83E100000
B87D000000
7DB8000000
1FE0000000
ENDCHAR
STARTCHAR agrave
ENCODING 224
SWIDTH 572 0
DWIDTH 10 0
BBX 11 17 0 -1
BITMAP
001900
003E00
002F00
000F40
000500
000000
06F900
1F5F80
3E07D0
3E07D0
1557D0
2FFFD0
BD07D0
BD0BC0
3FFFC0
059FE4
000554
ENDCHAR
STARTCHAR aacute
ENCODING 225
SWIDTH 572 0
DWIDTH 10 0
BBX 11 17 0 -1
BITMAP
000400
001F00
002E00
003D00
001800
000000
06F900
1F5F80
3E07D0
3E07D0
1557D0
2FFFD0
BD07D0
BD0BC0
3FFFC0
059FE4
000554
ENDCHAR
STARTCHAR acircumflex
ENCODING 226
SWIDTH 572 0
DWIDTH 10 0
BBX 11 17 0 -1
BITMAP
001400
007C00
00FE00
02DB80
020140
000000
06F900
1F5F80
3E07D0
3E07D0
1557D0
2FFFD0
BD07D0
BD0BC0
3FFFC0
059FE4
000554
ENDCHAR
STARTCHAR atilde
ENCODING 227
SWIDTH 572 0
DWIDTH 10 0
BBX 11 16 0 -1
BITMAP
01A480
02FF80
026F80
000000
000000
06F900
1F5F80
3E07D0
3E07D0
1557D0
2FFFD0
BD07D0
BD0BC0
3FFFC0
059FE4
000554
ENDCHAR
STARTCHAR adieresis
ENCODING 228
SWIDTH 572 0
DWIDTH 10 0
BBX 11 15 0 -1
BITMAP
038B00
03CF00
000000
000000
06F900
1F5F80
3E07D0
3E07D0
1557D0
2FFFD0
BD07D0
BD0BC0
3FFFC0
059FE4
000554
ENDCHAR
STARTCHAR aring
ENCODING 229
SWIDTH 572 0
DWIDTH 10 0
BBX 11 15 0 -1
BITMAP
001400
00BE00
00D600
00BD00
06FE00
1F5F80
3E07D0
3E07D0
1557D0
2FFFD0
BD07D0
BD0BC0
3FFFC0
059FE4
000554
ENDCHAR
STARTCHAR ae
ENCODING 230
SWIDTH 1022 0
DWIDTH 18 0
BBX 18 11 0 -1
BITMAP
06F9005400
2E6F4BFF40
7D0BEF5BD0
7D0BFD02F0
155BFEAAF0
7FFFFFAAA0
FC0FFD0000
FC0FAF9680
7FFF8BFE00
05AFE00000
0005540000
ENDCHAR
STARTCHAR ccedilla
ENCODING 231
SWIDTH 589 0
DWIDTH 11 0
BBX 11 16 0 -7
BITMAP
01BE40
0BEBD0
2F42F0
3E02F0
7E0050
7E0000
7F0014
3F8070
1FFFD0
02FF40
00B000
01F800
001E00
009E00
01FD00
001000
ENDCHAR
STARTCHAR egrave
ENCODING 232
SWIDTH 593 0
DWIDTH 11 0
BBX 11 15 0 -1
BITMAP
001800
007D00
002E00
001F00
000400
001400
06FF40
1FABD0
3F02F0
7E01F4
7FFFF4
7E5550
3F0010
1FEAD0
02FE00
ENDCHAR
STARTCHAR eacute
ENCODING 233
SWIDTH 593 0
DWIDTH 11 0
BBX 11 15 0 -1
BITMAP
000400
001E00
002E00
003C00
001400
001400
06FF40
1FABD0
3F02F0
7E01F4
7FFFF4
7E5550
3F0010
1FEAD0
02FE00
ENDCHAR
STARTCHAR ecircumflex
ENCODING 234
SWIDTH 593 0
DWIDTH 11 0
BBX 11 15 0 -1
BITMAP
001400
007C00
00FE00
02DB80
020140
001400
06FF40
1FABD0
3F02F0
7E01F4
7FFFF4
7E5550
3F0010
1FEAD0
02FE00
ENDCHAR
STARTCHAR edieresis
ENCODING 235
SWIDTH 593 0
DWIDTH 11 0
BBX 11 13 0 -1
BITMAP
01D780
02D780
000000
001400
06FF40
1FABD0
3F02F0
7E01F4
7FFFF4
7E5550
3F0010
1FEAD0
02FE00
ENDCHAR
STARTCHAR igrave
ENCODING 236
SWIDTH 393 0
DWIDTH 7 0
BBX 8 16 0 0
BITMAP
0640
0F80
07C0
03D0
0140
0000
5550
6FF0
07E0
03E0
03E0
03E0
03D0
03D0
0BE0
6FFD
ENDCHAR
STARTCHAR iacute
ENCODING 237
SWIDTH 393 0
DWIDTH 7 0
BBX 8 16 0 0
BITMAP
0040
00F4
01F0
02D0
0180
0000
5550
6FF0
07E0
03E0
03E0
03E0
03D0
03D0
0BE0
6FFD
ENDCHAR
STARTCHAR icircumflex
ENCODING 238
SWIDTH 393 0
DWIDTH 7 0
BBX 8 16 0 0
BITMAP
0140
03D0
0BF0
2E78
1408
0000
5550
6FF0
07E0
03E0
03E0
03E0
03D0
03D0
0BE0
6FFD
ENDCHAR
STARTCHAR idieresis
ENCODING 239
SWIDTH 393 0
DWIDTH 7 0
BBX 8 13 0 0
BITMAP
0E2C
0E3C
0000
5550
6FF0
07E0
03E0
03E0
03E0
03D0
03D0
0BE0
6FFD
ENDCHAR
STARTCHAR eth
ENCODING 240
SWIDTH 672 0
DWIDTH 12 0
BBX 12 17 0 -2
BITMAP
040000
02806C
007AF8
002FD0
00BFC0
03F6E0
0181F8
0000BC
06FFFE
2FA6FF
BE007F
FC003F
F8002F
FC003E
7E00BD
1FEBF4
01AA40
ENDCHAR
STARTCHAR ntilde
ENCODING 241
SWIDTH 643 0
DWIDTH 12 0
BBX 14 13 -1 1
BITMAP
00291400
007FF400
0066F400
00000000
05A15000
BFFFFD00
07F9BF00
02F02F00
02F01F00
01E01F00
01E01F00
1BF91E00
0001BF90
ENDCHAR
STARTCHAR ograve
ENCODING 242
SWIDTH 705 0
DWIDTH 13 0
BBX 13 14 0 0
BITMAP
00190000
003E0000
001F0000
000B4000
00050000
00594000
0BFFF800
3F40BE00
BD002F40
BC001F40
BD001F40
7E003F00
2F95FD00
06FFE000
ENDCHAR
STARTCHAR oacute
ENCODING 243
SWIDTH 705 0
DWIDTH 13 0
BBX 13 15 0 0
BITMAP
00040000
000F4000
001F0000
002E0000
00180000
00000000
00594000
0BFFF800
3F40BE00
BD002F40
BC001F40
BD001F40
7E003F00
2F95FD00
06FFE000
ENDCHAR
STARTCHAR ocircumflex
ENCODING 244
SWIDTH 705 0
DWIDTH 13 0
BBX 13 15 0 0
BITMAP
00080000
002E0000
007F8000
00F6D000
00405000
00000000
00594000
0BFFF800
3F40BE00
BD002F40
BC001F40
BD001F40
7E003F00
2F95FD00
06FFE000
ENDCHAR
STARTCHAR otilde
ENCODING 245
SWIDTH 705 0
DWIDTH 13 0
BBX 13 13 0 0
BITMAP
00685000
00FFD000
009BD000
00000000
00594000
0BFFF800
3F40BE00
BD002F40
BC001F40
BD001F40
7E003F00
2F95FD00
06FFE000
ENDCHAR
STARTCHAR odieresis
ENCODING 246
SWIDTH 705 0
DWIDTH 13 0
BBX 13 12 0 0
BITMAP
00B2D000
00B2D000
00000000
00594000
0BFFF800
3F40BE00
BD002F40
BC001F40
BD001F40
7E003F00
2F95FD00
06FFE000
ENDCHAR
STARTCHAR divide
ENCODING 247
SWIDTH 504 0
DWIDTH 9 0
BBX 9 11 0 0
BITMAP
004000
02F400
03F800
01A000
555000
BFFFC0
BFFF80
500000
02E000
03F400
02F400
ENDCHAR
STARTCHAR oslash
ENCODING 248
SWIDTH 705 0
DWIDTH 13 0
BBX 13 13 0 -2
BITMAP
00002000
0000BC00
005AF800
0BFFF800
3F47FE00
BD0FAF40
BC2F1F40
BD7D1F40
7EB83F00
2FF9FD00
07FFE000
07C00000
0B400000
ENDCHAR
STARTCHAR ugrave
ENCODING 249
SWIDTH 614 0
DWIDTH 11 0
BBX 13 16 -1 -1
BITMAP
00180000
007D0000
002E0000
001F0000
00040000
00000000
BFC6A900
1FC1BE00
0F803E00
0F803D00
0F803D00
0F807C00
0B807C00
07E6F800
01FFBE40
00146900
ENDCHAR
STARTCHAR uacute
ENCODING 250
SWIDTH 614 0
DWIDTH 11 0
BBX 13 16 -1 -1
BITMAP
00050000
000B8000
000F4000
001F0000
00050000
00000000
BFC6A900
1FC1BE00
0F803E00
0F803D00
0F803D00
0F807C00
0B807C00
07E6F800
01FFBE40
00146900
ENDCHAR
STARTCHAR ucircumflex
ENCODING 251
SWIDTH 614 0
DWIDTH 11 0
BBX 13 16 -1 -1
BITMAP
00040000
001E0000
007F8000
00F6D000
00805000
00000000
BFC6A900
1FC1BE00
0F803E00
0F803D00
0F803D00
0F807C00
0B807C00
07E6F800
01FFBE40
00146900
ENDCHAR
STARTCHAR udieresis
ENCODING 252
SWIDTH 614 0
DWIDTH 11 0
BBX 13 14 -1 -1
BITMAP
00E2C000
00F3C000
00000000
00000000
BFC6A900
1FC1BE00
0F803E00
0F803D00
0F803D00
0F807C00
0B807C00
07E6F800
01FFBE40
00146900
ENDCHAR
STARTCHAR yacute
ENCODING 253
SWIDTH 655 0
DWIDTH 12 0
BBX 13 23 -1 -8
BITMAP
00050000
000B8000
000F4000
001F0000
00050000
50000000
2E46A500
0FE0BF40
0BE03F40
0FD03F00
1FC03F00
1FC03F00
0FE07F00
07FFFF00
00697F00
00003F00
00003F00
00003E00
0B407E00
1F40BD00
0F00FC00
07EBF400
01BF9000
ENDCHAR
STARTCHAR thorn
ENCODING 254
SWIDTH 734 0
DWIDTH 13 0
BBX 15 21 -1 -8
BITMAP
55540000
2FF80000
02F80000
01F80000
01F80000
01F80000
01F80000
01FAA900
01FEAFD0
01F807F0
01F801F4
01F801F4
01F802F0
00FD5BE0
00FFFF80
00F85400
00F80000
00F80000
00F80000
0BFF9000
55550000
ENDCHAR
STARTCHAR ydieresis
ENCODING 255
SWIDTH 655 0
DWIDTH 12 0
BBX 13 21 -1 -8
BITMAP
00E2C000
00F3C000
00000000
50000000
2E46A500
0FE0BF40
0BE03F40
0FD03F00
1FC03F00
1FC03F00
0FE07F00
07FFFF00
00697F00
00003F00
00003F00
00003E00
0B407E00
1F40BD00
0F00FC00
07EBF400
01BF9000
ENDCHAR
STARTCHAR dotlessi
ENCODING 305
SWIDTH 393 0
DWIDTH 7 0
BBX 8 10 0 0
BITMAP
5550
6FF0
07E0
03E0
03E0
03E0
03D0
03D0
0BE0
6FFD
ENDCHAR
STARTCHAR Lslash
ENCODING 321
SWIDTH 713 0
DWIDTH 13 0
BBX 14 14 -1 0
BITMAP
6FFFE000
02FD0000
01FD0000
01FC0000
00FED000
00FFE000
06FF8010
2FFC0020
1EFC0060
00FC00A0
00BC00E0
00BD02E0
06FFFFE0
6AAA9550
ENDCHAR
STARTCHAR lslash
ENCODING 322
SWIDTH 365 0
DWIDTH 7 0
BBX 10 18 -2 -2
BITMAP
555400
1BFC00
00FC00
00FC00
00FC00
00FC40
00FFD0
01FF90
1FFD00
2FF800
09B800
00B800
00B800
00B800
00B800
00B800
07FF40
055400
ENDCHAR
STARTCHAR OE
ENCODING 338
SWIDTH 1195 0
DWIDTH 22 0
BBX 21 14 0 -1
BITMAP
0000055AAF80
0006FFFFEB80
00001BF00380
06FF97F00280
2F96FBF09180
7E00BFF0C040
BC007FF6C000
BC003FFFC040
BC007FFAC140
7D00BFF0C240
2F96FBE04340
07FF97E00740
00146FFFFF40
000155555500
ENDCHAR
STARTCHAR oe
ENCODING 339
SWIDTH 1087 0
DWIDTH 20 0
BBX 20 9 0 -1
BITMAP
0BFF91BE40
3F96FBFFF0
BD00FF81F8
B800BF00BD
BC00BFFFFD
7D00BFAAA5
2F56FF4004
07FF9FEAB0
000002FF80
ENDCHAR
STARTCHAR Scaron
ENCODING 352
SWIDTH 661 0
DWIDTH 12 0
BBX 12 19 0 -1
BITMAP
014080
02E780
00BF00
003D00
001400
000000
06A905
2FEBED
7D01BD
BD001C
BF9408
7FFF80
1BFFF4
006FFD
2001FE
2800BE
3E41FD
37FFE4
205500
ENDCHAR
STARTCHAR scaron
ENCODING 353
SWIDTH 533 0
DWIDTH 10 0
BBX 10 17 0 0
BITMAP
050200
0B9F00
02FD00
00F400
005000
000000
019040
2FFD80
7C1BC0
BD02C0
7F9080
2FFE00
06FF80
606FD0
7807E0
7FABC0
96FE00
ENDCHAR
STARTCHAR Ydieresis
ENCODING 376
SWIDTH 848 0
DWIDTH 15 0
BBX 18 17 -2 -2
BITMAP
0001D38000
0001E78000
0000000000
55AA800000
1BFE019550
00BE00BF80
002F807800
000FE1E000
0003FB8000
0001FE0000
00007D0000
00007D0000
00007D0000
00007D0000
0000BE0000
0007FFE400
0015555400
ENDCHAR
STARTCHAR Zcaron
ENCODING 381
SWIDTH 685 0
DWIDTH 12 0
BBX 13 17 0 0
BITMAP
00405000
01F6D000
007F8000
002E0000
00080000
00000000
6AAFFF80
7FEBFE00
3803FC00
340BF400
202FD000
107F8100
01FE0300
07FC0700
0FF40F00
2FFFFF00
6AAAAA00
ENDCHAR
STARTCHAR zcaron
ENCODING 382
SWIDTH 549 0
DWIDTH 10 0
BBX 11 17 0 -1
BITMAP
050100
079F00
02FD00
00B800
002000
000000
155554
BFFFF0
795FD0
743F40
30BE00
11FC10
07F450
0FE0D0
2FEAE0
6FFFE0
000150
ENDCHAR
STARTCHAR circumflex
ENCODING 710
SWIDTH 714 0
DWIDTH 13 0
BBX 6 5 4 12
BITMAP
0500
0F40
2FC0
B9E0
5020
ENDCHAR
STARTCHAR caron
ENCODING 711
SWIDTH 714 0
DWIDTH 13 0
BBX 6 5 4 12
BITMAP
5020
B9F0
2FC0
0F40
0500
ENDCHAR
STARTCHAR breve
ENCODING 728
SWIDTH 715 0
DWIDTH 13 0
BBX 6 4 4 13
BITMAP
5020
7AE0
2FC0
0A00
ENDCHAR
STARTCHAR dotaccent
ENCODING 729
SWIDTH 708 0
DWIDTH 13 0
BBX 3 2 5 15
BITMAP
74
B4
ENDCHAR
STARTCHAR ring
ENCODING 730
SWIDTH 704 0
DWIDTH 13 0
BBX 4 4 5 13
BITMAP
28
AA
A7
7D
ENDCHAR
STARTCHAR ogonek
ENCODING 731
SWIDTH 988 0
DWIDTH 18 0
BBX 7 5 5 -2
BITMAP
1400
3800
7800
7EA8
2FE4
ENDCHAR
STARTCHAR tilde
ENCODING 732
SWIDTH 707 0
DWIDTH 13 0
BBX 6 3 4 13
BITMAP
6920
BFE0
9BE0
ENDCHAR
STARTCHAR hungarumlaut
ENCODING 733
SWIDTH 671 0
DWIDTH 12 0
BBX 7 5 3 13
BITMAP
1450
2EB8
3EF4
7DE0
1490
ENDCHAR
STARTCHAR endash
ENCODING 8211
SWIDTH 576 0
DWIDTH 10 0
BBX 9 3 1 5
BITMAP
BFFF40
FFFF40
56AA40
ENDCHAR
STARTCHAR emdash
ENCODING 8212
SWIDTH 993 0
DWIDTH 18 0
BBX 16 3 1 5
BITMAP
AAAAABFE
FFFFFFFE
AAAAAAAA
ENDCHAR
STARTCHAR quoteleft
ENCODING 8216
SWIDTH 261 0
DWIDTH 5 0
BBX 5 6 0 7
BITMAP
0A00
1F40
3F00
7E00
6D00
0400
ENDCHAR
STARTCHAR quoteright
ENCODING 8217
SWIDTH 301 0
DWIDTH 5 0
BBX 5 6 0 7
BITMAP
0D00
1F80
2F40
3E00
7C00
0400
ENDCHAR
STARTCHAR quotesinglbase
ENCODING 8218
SWIDTH 332 0
DWIDTH 6 0
BBX 5 6 0 -2
BITMAP
0D00
1F80
2F40
3E00
7C00
0400
ENDCHAR
STARTCHAR quotedblleft
ENCODING 8220
SWIDTH 477 0
DWIDTH 9 0
BBX 9 6 0 7
BITMAP
0A0A00
1F6F40
3F3F00
7EBE00
6D6D00
040400
ENDCHAR
STARTCHAR quotedblright
ENCODING 8221
SWIDTH 477 0
DWIDTH 9 0
BBX 9 5 0 8
BITMAP
192900
2F7F40
3E7E00
7DBD00
B8B800
ENDCHAR
STARTCHAR quotedblbase
ENCODING 8222
SWIDTH 477 0
DWIDTH 9 0
BBX 9 5 0 -1
BITMAP
192900
2F7F40
3E7E00
7DBD00
B8B800
ENDCHAR
STARTCHAR dagger
ENCODING 8224
SWIDTH 487 0
DWIDTH 9 0
BBX 9 21 0 -6
BITMAP
03F000
03F000
03F000
03F000
6BF500
BFFF40
BFFF40
02F000
02F000
02F000
02E000
02E000
02E000
02E000
02E000
02E000
02E000
02E000
02E000
02E000
005000
ENDCHAR
STARTCHAR daggerdbl
ENCODING 8225
SWIDTH 497 0
DWIDTH 9 0
BBX 9 21 0 -6
BITMAP
03F000
03F000
03F000
03F000
6BF500
BFFF40
BFFF40
02F000
02F500
BFFF40
BFFF40
16F540
02E000
02E000
02E000
02E000
02E000
02E000
02E000
02E000
005000
ENDCHAR
STARTCHAR bullet
ENCODING 8226
SWIDTH 275 0
DWIDTH 5 0
BBX 5 6 0 4
BITMAP
0400
7F40
FF80
FFC0
BF40
1900
ENDCHAR
STARTCHAR ellipsis
ENCODING 8230
SWIDTH 787 0
DWIDTH 14 0
BBX 14 4 0 -2
BITMAP
14050140
BE2F8BE0
BE2F8BF0
14060180
ENDCHAR
STARTCHAR perthousand
ENCODING 8240
SWIDTH 888 0
DWIDTH 16 0
BBX 17 15 0 -1
BITMAP
0001E00000
7F82F00000
F6D7D00000
F2DBC00000
BBCF800000
1A1F000000
002E000000
007D000000
00B8000000
00F4A46900
01F3EFFF40
02D78FD780
07C79FEB80
0B82FDBE00
0600000000
ENDCHAR
STARTCHAR guilsinglleft
ENCODING 8249
SWIDTH 234 0
DWIDTH 4 0
BBX 4 9 0 0
BITMAP
02
0B
1E
3C
B8
BC
2D
0E
07
ENDCHAR
STARTCHAR guilsinglright
ENCODING 8250
SWIDTH 223 0
DWIDTH 4 0
BBX 4 9 0 0
BITMAP
50
B0
78
3D
1F
2E
3C
B4
A0
ENDCHAR
STARTCHAR fraction
ENCODING 8260
SWIDTH 600 0
DWIDTH 11 0
BBX 12 17 -1 -2
BITMAP
000028
00007F
0000BE
0001FD
0003F8
000BF0
000FD0
002F80
007F00
00FE00
01FC00
03F400
0BE000
1FC000
2F4000
7E0000
1D0000
ENDCHAR
STARTCHAR Euro
ENCODING 8364
SWIDTH 590 0
DWIDTH 11 0
BBX 12 12 -1 0
BITMAP
001A90
00BEF8
02F03D
07D03E
7FEA18
7FEA00
1BD540
7FFF82
03F409
01FEB8
007FE0
000100
ENDCHAR
STARTCHAR trademark
ENCODING 8482
SWIDTH 624 0
DWIDTH 11 0
BBX 11 8 0 5
BITMAP
140000
740000
BA0000
71AA64
707698
706258
796658
140100
ENDCHAR
STARTCHAR minus
ENCODING 8722
SWIDTH 549 0
DWIDTH 10 0
BBX 10 4 0 4
BITMAP
AAA950
BFFFE0
BFFFE0
555000
ENDCHAR
STARTCHAR fi
ENCODING 64257
SWIDTH 757 0
DWIDTH 14 0
BBX 15 25 -1 -7
BITMAP
00014000
001FFD00
007D6F40
00F80BC0
01F40FD0
01F41FD0
01F40BC0
01F40000
01F40000
2FFFFFD0
1AFEAFD0
00F80BD0
00FC0BC0
00BC0BC0
00BC07C0
00BD07C0
007D1BD0
007D7FF8
003E0000
003E0000
103E0000
B83E0000
B83D0000
7DB80000
1FE00000
ENDCHAR
STARTCHAR fl
ENCODING 64258
SWIDTH 776 0
DWIDTH 14 0
BBX 16 25 -1 -7
BITMAP
00015000
001FFD00
007D6F40
00F40FC0
01F40BD0
01F40BD0
01F407E0
01F407E0
01F407D0
2FFFD7D0
1AFE97D0
00F807D0
00FC07D0
00BC07D0
00BC03D0
00BD03D0
007D03D0
007D07D0
003E2FF9
003E5550
103E0000
B83E0000
B83D0000
7DB80000
1FE00000
ENDCHAR
STARTCHAR .notdef
ENCODING -1
SWIDTH 320 0
DWIDTH 6 0
BBX 1 1 0 0
BITMAP
00
ENDCHAR
ENDFONT
